<?xml version="1.0" encoding="utf-8"?>
<!-- Generator: Adobe Illustrator 16.0.0, SVG Export Plug-In . SVG Version: 6.00 Build 0)  -->
<!DOCTYPE svg PUBLIC "-//W3C//DTD SVG 1.1//EN" "http://www.w3.org/Graphics/SVG/1.1/DTD/svg11.dtd">
<svg version="1.1" id="Capa_1" xmlns="http://www.w3.org/2000/svg" xmlns:xlink="http://www.w3.org/1999/xlink" x="0px" y="0px"
	 width="300px" height="300px" viewBox="0 0 300 300" enable-background="new 0 0 300 300" xml:space="preserve">
<g>
	<g>
		<path fill="#FFFFFF" d="M5.948,288.281h-0.08c-3.236,0-5.859,2.623-5.859,5.859c0,3.235,2.623,5.858,5.859,5.858h0.08
			c3.236,0,5.859-2.624,5.859-5.858C11.807,290.904,9.184,288.281,5.948,288.281z"/>
	</g>
</g>
<g>
	<g>
		<path fill="#FFFFFF" d="M294.131,288.281h-36.318v-15.879c8.038-0.072,21.872-1.671,31.162-10.789
			c12.721-12.484,11.108-33.983,10.755-37.45c-0.084-1.294-0.596-2.566-1.542-3.592c-1.047-1.134-2.438-1.761-3.864-1.868
			c-2.878-0.26-23.85-1.67-36.794,11.029c-2.281,2.239-4.114,4.741-5.588,7.36c-1.468-2.63-3.293-5.134-5.562-7.362
			c-12.869-12.623-33.675-11.303-36.723-11.033c-1.373,0.088-2.723,0.656-3.771,1.705c-1.037,1.037-1.603,2.365-1.701,3.721
			c-0.344,3.316-2.031,24.945,10.752,37.49c9.291,9.119,23.123,10.718,31.16,10.791v15.877h-90.237v-15.879
			c8.038-0.072,21.871-1.671,31.161-10.789c12.722-12.484,11.109-33.983,10.756-37.45c-0.084-1.294-0.596-2.566-1.543-3.592
			c-1.047-1.134-2.438-1.761-3.863-1.868c-2.878-0.261-23.85-1.67-36.795,11.029c-2.275,2.233-4.105,4.744-5.575,7.383
			c-1.469-2.639-3.3-5.15-5.576-7.385c-12.892-12.645-33.746-11.3-36.74-11.032c-1.445,0.097-2.856,0.726-3.917,1.873
			c-0.928,1.005-1.437,2.248-1.535,3.516c-0.333,3.182-2.081,24.937,10.747,37.526c9.291,9.119,23.125,10.717,31.162,10.789v15.879
			H53.984v-15.879c8.038-0.072,21.872-1.671,31.162-10.789c12.721-12.484,11.108-33.983,10.755-37.45
			c-0.084-1.294-0.596-2.566-1.543-3.592c-1.046-1.134-2.437-1.761-3.864-1.868c-2.877-0.26-23.85-1.67-36.793,11.029
			c-2.276,2.233-4.106,4.745-5.575,7.383c-1.47-2.639-3.3-5.149-5.576-7.384c-12.891-12.646-33.746-11.3-36.74-11.032
			c-1.445,0.097-2.856,0.725-3.917,1.873c-0.927,1.004-1.437,2.248-1.535,3.516c-0.333,3.182-2.081,24.936,10.748,37.525
			c9.291,9.119,23.125,10.718,31.161,10.79v15.878h-18.83c-3.236,0-5.859,2.624-5.859,5.859c0,3.236,2.623,5.859,5.859,5.859
			h270.694c3.236,0,5.858-2.624,5.858-5.859S297.366,288.281,294.131,288.281z M265.736,238.098
			c6.357-6.237,16.475-7.591,22.536-7.798c-0.042,6.234-1.153,16.716-7.507,22.951c-6.367,6.249-16.766,7.371-22.926,7.433
			C258.066,254.02,259.73,243.99,265.736,238.098z M223.142,253.25c-5.842-5.732-7.454-15.764-7.522-22.951
			c6.052,0.205,16.186,1.553,22.553,7.797c6.002,5.891,7.666,15.908,7.896,22.572C239.896,260.59,229.463,259.455,223.142,253.25z
			 M163.781,238.098c6.357-6.237,16.475-7.591,22.537-7.798c-0.042,6.234-1.154,16.716-7.507,22.951
			c-6.368,6.249-16.767,7.371-22.927,7.433C156.111,254.021,157.775,243.992,163.781,238.098z M121.188,253.25
			c-6.354-6.234-7.464-16.717-7.506-22.951c6.053,0.207,16.175,1.559,22.536,7.797c6.001,5.891,7.667,15.91,7.896,22.572
			C137.943,260.592,127.51,259.455,121.188,253.25z M61.907,238.098c6.358-6.237,16.474-7.591,22.536-7.798
			c-0.042,6.234-1.153,16.716-7.506,22.951c-6.367,6.249-16.767,7.371-22.927,7.433C54.237,254.021,55.901,243.992,61.907,238.098z
			 M19.313,253.25c-6.353-6.234-7.464-16.717-7.506-22.951c6.053,0.207,16.175,1.559,22.536,7.797
			c6.006,5.896,7.67,15.924,7.897,22.587C36.08,260.621,25.68,259.5,19.313,253.25z"/>
	</g>
</g>
<g>
	<g>
		<polygon fill="#FFFFFF" points="112.979,261.613 112.979,261.613 112.979,261.613 		"/>
	</g>
</g>
<g>
	<g>
		<path fill="#FFFFFF" d="M214.934,261.613L214.934,261.613L214.934,261.613z"/>
	</g>
</g>
<g>
	<g>
		<polygon fill="#FFFFFF" points="11.105,261.613 11.105,261.613 11.104,261.613 		"/>
	</g>
</g>
<g>
	<g>
		<path fill="#FFFFFF" d="M294.131,179.018h-0.08c-3.236,0-5.858,2.623-5.858,5.859c0,3.235,2.623,5.858,5.858,5.858h0.08
			c3.236,0,5.859-2.624,5.859-5.858C299.99,181.641,297.366,179.018,294.131,179.018z"/>
	</g>
</g>
<g>
	<g>
		<path fill="#FFFFFF" d="M288.974,152.35c12.722-12.485,11.109-33.983,10.756-37.45c-0.085-1.293-0.596-2.566-1.543-3.592
			c-1.046-1.133-2.437-1.76-3.864-1.868c-2.876-0.26-23.849-1.67-36.793,11.028c-2.281,2.24-4.115,4.741-5.588,7.358
			c-1.469-2.629-3.294-5.132-5.562-7.359c-12.869-12.624-33.676-11.303-36.724-11.033c-1.373,0.087-2.722,0.656-3.771,1.705
			c-1.036,1.037-1.603,2.364-1.7,3.72c-0.344,3.317-2.033,24.944,10.751,37.491c9.291,9.119,23.124,10.717,31.161,10.789v15.879
			h-90.237v-15.879c8.038-0.072,21.871-1.671,31.161-10.789c12.723-12.485,11.109-33.983,10.756-37.45
			c-0.084-1.293-0.596-2.566-1.543-3.592c-1.047-1.133-2.438-1.76-3.864-1.868c-2.876-0.26-23.849-1.67-36.794,11.028
			c-2.275,2.234-4.105,4.744-5.575,7.381c-1.469-2.638-3.3-5.148-5.575-7.382c-12.892-12.646-33.748-11.299-36.74-11.032
			c-1.445,0.097-2.856,0.726-3.917,1.873c-0.928,1.005-1.437,2.248-1.535,3.515c-0.333,3.184-2.081,24.937,10.747,37.526
			c9.291,9.119,23.125,10.718,31.162,10.79v15.879H53.984v-15.879c8.038-0.072,21.872-1.672,31.162-10.79
			c12.722-12.485,11.108-33.983,10.755-37.45c-0.084-1.293-0.596-2.566-1.543-3.592c-1.046-1.133-2.437-1.76-3.864-1.867
			c-2.875-0.26-23.849-1.67-36.793,11.028c-2.276,2.234-4.106,4.744-5.575,7.38c-1.47-2.637-3.3-5.148-5.575-7.381
			C29.658,107.82,8.804,109.167,5.81,109.434c-1.445,0.097-2.856,0.726-3.917,1.873c-0.927,1.005-1.437,2.249-1.535,3.515
			c-0.333,3.184-2.081,24.937,10.748,37.526c9.291,9.119,23.125,10.718,31.161,10.791v15.878H5.868
			c-3.236,0-5.859,2.623-5.859,5.858c0,3.236,2.623,5.86,5.859,5.86h270.695c3.235,0,5.858-2.624,5.858-5.858
			c0-3.236-2.624-5.859-5.858-5.859h-18.75v-15.879C265.851,163.066,279.684,161.468,288.974,152.35z M265.736,128.833
			c6.357-6.237,16.475-7.59,22.536-7.797c-0.042,6.234-1.153,16.716-7.507,22.951c-6.367,6.25-16.766,7.371-22.926,7.433
			C258.066,144.756,259.73,134.727,265.736,128.833z M223.142,143.987c-5.843-5.733-7.454-15.765-7.522-22.952
			c6.052,0.205,16.187,1.554,22.553,7.797c6.002,5.891,7.667,15.91,7.896,22.572C239.896,151.328,229.463,150.192,223.142,143.987z
			 M163.781,128.833c6.358-6.237,16.475-7.59,22.537-7.797c-0.043,6.234-1.154,16.716-7.507,22.951
			c-6.368,6.25-16.767,7.371-22.927,7.433C156.111,144.757,157.775,134.728,163.781,128.833z M121.188,143.987
			c-6.354-6.235-7.465-16.717-7.506-22.952c6.054,0.207,16.176,1.559,22.536,7.797c6.001,5.891,7.667,15.91,7.896,22.572
			C137.943,151.328,127.51,150.193,121.188,143.987z M61.907,128.833c6.358-6.237,16.475-7.59,22.537-7.797
			c-0.042,6.234-1.153,16.716-7.506,22.951c-6.367,6.25-16.767,7.371-22.926,7.433C54.237,144.757,55.901,134.728,61.907,128.833z
			 M19.313,143.987c-6.353-6.235-7.464-16.717-7.506-22.952c6.054,0.207,16.176,1.559,22.536,7.797
			c6.006,5.896,7.67,15.925,7.897,22.587C36.08,151.358,25.68,150.236,19.313,143.987z"/>
	</g>
</g>
<g>
	<g>
		<polygon fill="#FFFFFF" points="112.979,152.35 112.979,152.35 112.979,152.35 		"/>
	</g>
</g>
<g>
	<g>
		<path fill="#FFFFFF" d="M214.934,152.35L214.934,152.35L214.934,152.35z"/>
	</g>
</g>
<g>
	<g>
		<polygon fill="#FFFFFF" points="11.105,152.35 11.105,152.35 11.104,152.35 		"/>
	</g>
</g>
<g>
	<g>
		<path fill="#FFFFFF" d="M5.948,69.754h-0.08c-3.236,0-5.859,2.624-5.859,5.859c0,3.236,2.623,5.859,5.859,5.859h0.08
			c3.236,0,5.859-2.624,5.859-5.859C11.807,72.378,9.184,69.754,5.948,69.754z"/>
	</g>
</g>
<g>
	<g>
		<polygon fill="#FFFFFF" points="112.979,43.087 112.979,43.087 112.979,43.086 		"/>
	</g>
</g>
<g>
	<g>
		<polygon fill="#FFFFFF" points="214.934,43.087 214.934,43.087 214.934,43.086 		"/>
	</g>
</g>
<g>
	<g>
		<path fill="#FFFFFF" d="M294.133,69.754h-36.318V53.876c8.037-0.073,21.871-1.672,31.161-10.79
			c12.723-12.486,11.108-33.989,10.755-37.452c-0.09-1.369-0.658-2.713-1.704-3.759c-1.036-1.035-2.362-1.602-3.716-1.7
			c-2.93-0.263-23.856-1.648-36.779,11.03c-2.282,2.239-4.115,4.742-5.588,7.36c-1.469-2.63-3.295-5.134-5.562-7.362
			C233.522-1.405,212.748-0.103,209.663,0.17c-1.3,0.081-2.581,0.592-3.611,1.544c-1.137,1.049-1.764,2.445-1.868,3.877
			c-0.344,3.298-2.04,24.943,10.75,37.495c9.291,9.119,23.123,10.717,31.16,10.79v15.877h-90.235V53.877
			c8.038-0.073,21.871-1.672,31.161-10.79c12.723-12.486,11.108-33.989,10.755-37.451c-0.089-1.37-0.657-2.713-1.704-3.76
			c-1.035-1.035-2.362-1.602-3.717-1.7c-2.93-0.263-23.855-1.648-36.779,11.03c-2.275,2.233-4.105,4.745-5.575,7.383
			c-1.469-2.639-3.3-5.15-5.576-7.384C131.566-1.407,110.789-0.101,107.708,0.17c-1.376,0.085-2.728,0.654-3.78,1.706
			c-1.035,1.035-1.602,2.361-1.7,3.715c-0.341,3.289-2.037,24.946,10.75,37.496c9.291,9.119,23.125,10.717,31.161,10.79v15.877
			H53.984V53.877c8.038-0.073,21.872-1.672,31.162-10.79C97.868,30.601,96.253,9.098,95.9,5.636c-0.09-1.37-0.658-2.713-1.705-3.76
			c-1.036-1.035-2.362-1.602-3.716-1.7c-2.93-0.263-23.855-1.648-36.779,11.03c-2.276,2.233-4.106,4.746-5.575,7.383
			c-1.47-2.638-3.3-5.15-5.576-7.384C29.692-1.407,8.914-0.101,5.833,0.17C4.458,0.255,3.106,0.824,2.054,1.876
			c-1.035,1.035-1.601,2.361-1.7,3.715C0.014,8.88-1.682,30.537,11.105,43.087c9.291,9.119,23.125,10.717,31.161,10.79v15.877
			h-18.83c-3.236,0-5.859,2.623-5.859,5.859s2.623,5.859,5.859,5.859H48.12c0.001,0,0.003,0,0.006,0c0.002,0,0.003,0,0.006,0
			h101.862c0.002,0,0.004,0,0.006,0c0.002,0,0.004,0,0.006,0h101.944c0.001,0,0.003,0,0.006,0c0.002,0,0.003,0,0.006,0h42.171
			c3.236,0,5.858-2.624,5.858-5.859C299.991,72.377,297.368,69.754,294.133,69.754z M265.736,19.57
			c6.357-6.237,16.475-7.59,22.536-7.797c-0.042,6.234-1.153,16.716-7.507,22.951c-6.367,6.25-16.766,7.371-22.926,7.432
			C258.066,35.493,259.73,25.463,265.736,19.57z M223.142,34.724c-5.842-5.732-7.454-15.764-7.522-22.952
			c6.053,0.205,16.187,1.555,22.553,7.798c6.002,5.89,7.666,15.909,7.896,22.571C239.896,42.064,229.463,40.928,223.142,34.724z
			 M163.781,19.57c6.358-6.237,16.475-7.59,22.537-7.797c-0.043,6.234-1.154,16.716-7.507,22.951
			c-6.368,6.25-16.767,7.371-22.927,7.432C156.111,35.493,157.775,25.464,163.781,19.57z M121.188,34.724
			c-6.354-6.235-7.464-16.717-7.506-22.952c6.053,0.207,16.175,1.559,22.536,7.797c6.001,5.89,7.667,15.909,7.896,22.571
			C137.943,42.064,127.51,40.929,121.188,34.724z M61.907,19.57c6.358-6.237,16.475-7.59,22.536-7.797
			c-0.042,6.234-1.154,16.716-7.506,22.951c-6.367,6.25-16.767,7.371-22.927,7.432C54.237,35.493,55.901,25.464,61.907,19.57z
			 M19.313,34.724c-6.353-6.234-7.464-16.717-7.506-22.952c6.053,0.207,16.175,1.559,22.535,7.797
			c6.006,5.895,7.67,15.924,7.897,22.586C36.08,42.095,25.681,40.973,19.313,34.724z"/>
	</g>
</g>
<g>
	<g>
		<polygon fill="#FFFFFF" points="11.105,43.087 11.105,43.087 11.104,43.086 		"/>
	</g>
</g>
</svg>
