<?xml version="1.0" encoding="utf-8"?>
<!-- Generator: Adobe Illustrator 16.0.0, SVG Export Plug-In . SVG Version: 6.00 Build 0)  -->
<!DOCTYPE svg PUBLIC "-//W3C//DTD SVG 1.1//EN" "http://www.w3.org/Graphics/SVG/1.1/DTD/svg11.dtd">
<svg version="1.1" id="Layer_1" xmlns="http://www.w3.org/2000/svg" xmlns:xlink="http://www.w3.org/1999/xlink" x="0px" y="0px"
	 width="300px" height="300px" viewBox="0 0 300 300" enable-background="new 0 0 300 300" xml:space="preserve">
<g>
	<g>
		<path fill="#FFFFFF" d="M279.586,122.833c-13.109-11.702-30.701-21.768-49.543-28.353c-0.012-0.004-0.023-0.009-0.036-0.013
			c-0.021-0.007-0.04-0.015-0.062-0.022c-8.695-3.033-17.631-5.321-26.592-6.831c-5.291-6.415-22.838-25.038-53.222-32.097
			c-5.048-1.174-10.275,0.006-14.345,3.237c-4.095,3.252-6.444,8.113-6.444,13.339v24.129c-28.537,12.56-51.161,33.043-63.325,45.62
			c-1.811-9.143-5.828-20.702-14.693-29.567C34.444,95.393,7.27,96.095,6.128,96.133c-3.332,0.111-6.006,2.786-6.116,6.117
			c-0.039,1.148-0.732,28.31,16.147,45.189c4.188,4.187,8.987,7.259,13.875,9.517c-4.888,2.306-9.688,5.408-13.875,9.596
			C-0.72,183.438-0.026,210.6,0.012,211.748c0.11,3.331,2.785,6.007,6.116,6.117c0.108,0.004,0.45,0.014,0.994,0.014
			c5.206,0,28.921-0.873,44.203-16.16c8.94-8.94,12.948-20.764,14.735-30.079c8.921,9.208,23.454,22.652,41.827,34.148v22.119
			c0,5.427,2.496,10.397,6.847,13.638c2.993,2.229,6.517,3.383,10.116,3.383c1.642,0,3.299-0.24,4.929-0.729
			c15.313-4.571,26.899-12.916,32.268-17.312c5.174,0.759,10.329,1.148,15.364,1.148c17.284,0,34.579-2.908,51.403-8.641
			c0.012-0.004,0.022-0.008,0.033-0.012c39.236-13.372,71.15-41.476,71.15-62.658C300.002,146.62,292.752,134.584,279.586,122.833z
			 M25.112,138.489c-8.66-8.66-11.307-21.657-12.108-29.385c7.713,0.784,20.664,3.413,29.372,12.12
			c8.652,8.652,11.301,21.405,12.105,28.977C46.878,149.566,33.796,147.174,25.112,138.489z M42.375,192.768
			c-8.652,8.656-21.637,11.305-29.369,12.106c0.804-7.735,3.455-20.717,12.105-29.372c8.688-8.688,21.744-11.32,29.385-12.109
			C53.715,171.104,51.086,184.058,42.375,192.768z M142.002,72.092c0-1.341,0.604-2.59,1.657-3.426
			c0.604-0.48,1.876-1.223,3.606-0.821c15.982,3.714,27.962,11.202,35.896,17.679c-1.922-0.072-3.839-0.109-5.748-0.109
			c-11.552,0-23.428,1.997-35.412,5.938V72.092z M126.157,232.07c-1.336,0.4-2.745,0.152-3.861-0.679
			c-0.653-0.486-1.75-1.585-1.75-3.484v-14.896c8.359,4.317,16.705,7.716,24.976,10.183
			C140.445,226.375,133.852,229.773,126.157,232.07z M177.414,215.375c-5.273,0-10.713-0.481-16.162-1.43
			c-14.239-2.492-28.969-8.255-43.78-17.131c-23.333-13.986-40.903-32.185-47.975-40.092c9.006-10.075,35.046-36.837,68.549-50.441
			c0.041-0.017,0.082-0.031,0.122-0.048c13.374-5.415,26.577-8.161,39.247-8.161c7.126,0,14.369,0.552,21.529,1.644
			c5.465,0.831,10.929,1.987,16.335,3.444c-13.282,14.099-21.713,34.867-21.713,54.981c0,18.365,8.14,38.185,20.948,52.352
			C202.27,213.73,189.834,215.375,177.414,215.375z M228.096,206.221c-13.191-11.891-21.872-30.77-21.872-48.078
			c0-18.934,9.241-39.207,22.778-50.578c36.234,13.551,58.342,37.453,58.342,49.159
			C287.344,168.627,264.895,192.736,228.096,206.221z"/>
	</g>
</g>
<g>
	<g>
		<path fill="#FFFFFF" d="M251.458,148.977c-3.495,0-6.329,2.834-6.329,6.33v2.834c0,3.496,2.834,6.33,6.329,6.33
			s6.329-2.834,6.329-6.33v-2.834C257.787,151.811,254.953,148.977,251.458,148.977z"/>
	</g>
</g>
<g>
	<g>
		<path fill="#FFFFFF" d="M185.917,114.179c-2.534-2.407-6.54-2.303-8.947,0.231c-0.606,0.639-1.206,1.309-1.781,1.992
			c-2.252,2.674-1.911,6.666,0.763,8.918c1.188,1.001,2.635,1.489,4.075,1.489c1.802,0,3.592-0.766,4.843-2.251
			c0.414-0.492,0.845-0.973,1.279-1.431C188.556,120.591,188.452,116.586,185.917,114.179z"/>
	</g>
</g>
<g>
	<g>
		<path fill="#FFFFFF" d="M185.188,191.611c-7.035-8.1-11.07-20.387-11.07-33.709c0-7.459,1.305-14.798,3.777-21.224
			c1.254-3.262-0.374-6.924-3.636-8.179c-3.263-1.255-6.925,0.373-8.18,3.635c-3.022,7.86-4.62,16.77-4.62,25.766
			c0,16.329,5.165,31.642,14.172,42.011c1.252,1.441,3.011,2.179,4.78,2.179c1.472,0,2.95-0.51,4.147-1.55
			C187.197,198.247,187.479,194.25,185.188,191.611z"/>
	</g>
</g>
</svg>
