<?xml version="1.0" encoding="utf-8"?>
<!-- Generator: Adobe Illustrator 16.0.0, SVG Export Plug-In . SVG Version: 6.00 Build 0)  -->
<!DOCTYPE svg PUBLIC "-//W3C//DTD SVG 1.1//EN" "http://www.w3.org/Graphics/SVG/1.1/DTD/svg11.dtd">
<svg version="1.1" id="Layer_1" xmlns="http://www.w3.org/2000/svg" xmlns:xlink="http://www.w3.org/1999/xlink" x="0px" y="0px"
	 width="704px" height="575px" viewBox="72.696 155.696 704 575" enable-background="new 72.696 155.696 704 575"
	 xml:space="preserve">
<g>
	<g>
		<path fill="#FBBA00" d="M648.104,416.868c32.617-2.336,65.229-4.678,97.847-7.016c8.85-24.768,17.616-50.522,26.289-77.269
			c-13.278-23.171-26.455-45.373-39.554-66.57c-80.967,20.641-166.803,43.027-248.544,63.943
			c17.333-7.432,41.989-22.228,62.512-50.84c12.075-16.834,22.871-29.454,32.225-37.709h0.003c5.452-4.951,9.771-5.811,12.317-4.67
			c0.328,0.182,0.666,0.348,1.008,0.511c0.127,0.071,0.216,0.12,0.216,0.12l0.026-0.019c1.412,0.646,2.981,1.187,4.69,1.589
			c8.436,1.981,16.863-0.1,18.832-4.646c1.478-3.408-1.09-7.229-6-9.772c7.692-1.774,13.178-6.374,12.325-10.43
			c-0.529-2.505-3.367-4.214-7.286-4.821c0.235-0.193,0.482-0.395,0.717-0.605c6.097-5.41,8.754-12.363,5.95-15.528
			c-2.816-3.174-10.039-1.354-16.138,4.054c-0.235,0.215-0.453,0.426-0.682,0.643c-0.125-3.97-1.492-6.986-3.921-7.807
			c-3.922-1.331-9.141,3.565-11.823,10.996c-1.934-5.18-5.42-8.186-8.977-7.121c-4.756,1.404-7.832,9.531-6.865,18.145
			c0.201,1.758,0.555,3.394,1.03,4.89l-0.008,0.009c0,0,0.021,0.025,0.037,0.059c0.143,0.465,0.305,0.922,0.47,1.355
			c0.841,2.723-0.306,6.599-5.849,11.514l0.002,0.005c-10.344,9.126-21.961,22.64-34.676,40.366
			c-24.531,34.195-56.107,46.5-68.81,50.257l13.304-77.526l-20.34-11.012c5.667-14.28,15.44-32.146,31.854-46.838
			c0.278,0.223,0.567,0.453,0.852,0.666c6.019,4.544,11.25,7.186,13.443,6.659c1.963-0.47,2.891-3.149,3.266-4.706
			c1.754-7.235-0.487-19.332-6.012-24.061c-5.748-4.896-19.443-5.257-25.871-1.98c-1.426,0.727-3.09,1.961-2.949,3.73
			c0.195,2.582,3.926,7.589,9.496,12.963c-16.951,15.445-27.166,33.703-33.203,48.625l-24.368-13.195l-24.373,13.195
			c-6.036-14.922-16.252-33.181-33.205-48.625c5.571-5.377,9.303-10.381,9.502-12.963c0.137-1.77-1.527-3.004-2.95-3.73
			c-6.432-3.276-20.126-2.916-25.877,1.98c-5.521,4.729-7.761,16.825-6.012,24.061c0.379,1.557,1.306,4.236,3.267,4.706
			c2.196,0.526,7.428-2.115,13.446-6.659c0.279-0.213,0.567-0.443,0.854-0.664c16.41,14.689,26.183,32.556,31.847,46.836
			l-20.34,11.012l13.314,77.582c-12.625-3.715-44.315-15.99-68.915-50.288c-6.63-9.241-13.989-18.096-21.841-26.424
			c14.398-10.883,10.416-28.519,4.439-36.442c-12.375,6.221-16.095,15.92-16.6,24.375c-5.109-4.742-10.367-9.244-15.753-13.454
			c14.185-24.108-12.704-40.173-12.704-40.173s-16.051,16.219-6.474,34.436c-13.905-5.611-27.378,6.83-27.378,6.83
			s14.151,25.012,36.359,10.252c11.166,8.641,21.808,18.597,31.5,29.449c-7.106-0.986-15.194-0.129-23.39,4.739
			c7.244,12.568,20.992,22.679,37.863,13.139c0.53,0.719,1.082,1.425,1.604,2.148c20.423,28.473,44.938,43.267,62.262,50.733
			c-81.651-20.893-167.368-43.25-248.225-63.861c-13.096,21.197-26.275,43.399-39.553,66.57
			c8.675,26.746,17.44,52.501,26.292,77.269c33.004,2.367,66.005,4.733,99.006,7.102l17.152,34.048l128.86-19.66
			c-14.578,4.445-33.059,12.785-51.296,28.446c-4.487,3.854-9.062,7.897-13.698,11.999c-20.423,18.062-42.899,37.933-64.783,46.598
			l-0.462-1.271c-1.616-4.427-6.504-6.713-10.933-5.108c-1.936,0.704-3.426,2.057-4.39,3.703c-2.221-2.83-6.047-4.079-9.599-2.786
			c-3.398,1.23-5.51,4.402-5.609,7.809c-2.008-1.003-4.412-1.218-6.686-0.396c-4.429,1.611-6.712,6.509-5.101,10.938
			c0.012,0.016,0.02,0.035,0.031,0.063c-1.109,0.076-2.218,0.296-3.316,0.689c-6.168,2.248-9.353,9.058-7.11,15.223
			c2.239,6.167,9.06,9.345,15.225,7.109c1.092-0.409,2.089-0.952,2.986-1.609c0,0.024,0.011,0.051,0.025,0.08
			c1.597,4.423,6.494,6.708,10.919,5.104c2.286-0.832,3.985-2.545,4.885-4.602c2.255,2.545,5.919,3.626,9.303,2.387
			c3.558-1.287,5.684-4.71,5.575-8.294c1.798,0.632,3.806,0.711,5.74,0.005c4.434-1.599,6.717-6.494,5.098-10.93l-1.384-3.812
			c24.546-9.603,48.169-30.478,69.673-49.496c4.583-4.052,9.096-8.046,13.533-11.854c24.701-21.209,50.172-27.348,62.394-29.123
			c-11.568,25.48-58.708,122.728-121.521,163.979c-6.339-7.104-12.225-11.62-15.205-11.439c-2.68,0.162-4.697,3.418-5.655,5.338
			c-4.479,8.936-5.28,25.01,0.4,32.332c5.931,7.594,23.519,11.113,32.833,8.323c2.047-0.614,4.574-1.835,4.944-4.142
			c0.518-3.305-2.639-10.355-7.98-18.324c30.373-20.201,60.396-54.126,89.436-101.13c5.121-8.287,9.787-16.311,13.986-23.851
			c-8.994,64.264-17.995,128.524-26.992,192.785c28.368,13.435,58.618,26.869,90.744,40.309
			c32.123-13.441,62.37-26.874,90.734-40.312c-9.019-64.418-18.037-128.836-27.058-193.253c4.267,7.674,9.023,15.861,14.25,24.321
			c18.109,29.311,36.604,53.497,55.323,72.479c23.351,28.175,14.914,50.67,19.051,51.011c4.16,0.104,6.289-16.648,4.733-29.807
			c2.758,2.123,5.52,4.13,8.284,6.026l-0.04-0.004c21.077,15.232,20.744,34.651,24.808,34.651c3.477,0,2.116-19.097-3.537-29.43
			c14.304,2.192,30.376-0.139,29.673-2.974c-0.811-3.271-23.013-2.768-46.5-17.771c-4.825-3.546-9.553-7.411-14.168-11.529
			c19.188,4.906,45.74,2.008,44.121-2.24c-1.817-4.764-41.457,2.817-73.506-28.689c-36.791-44.669-62.813-98.671-70.994-116.675
			c12.226,1.762,37.488,7.876,62.248,29.136c4.438,3.809,8.953,7.803,13.533,11.856c20.762,18.361,43.5,38.461,67.137,48.465
			c2.642,7.509,10.871,17.059,23.646,20.489c11.682,3.132,22.379,0.789,31.332-2.908c2.616-1.088,7.174-3.646,8.504-7.702
			c1.307-3.993-0.411-7.573-1.688-9.599c-4.896-7.873-12.658-16.235-24.539-19.435c-13.867-3.72-25.007,0.677-31.141,5.212
			c-21.373-8.984-43.242-28.313-63.161-45.933c-4.639-4.103-9.213-8.146-13.698-11.999c-18.976-16.289-38.211-24.657-53.037-28.963
			l131.731,20.177L648.104,416.868z M720.204,390.811c-6.183,0.603-12.384,1.215-18.568,1.829
			c-0.549-5.937-1.094-11.875-1.645-17.811c6.18-0.757,12.357-1.512,18.528-2.267C719.083,378.642,719.641,384.726,720.204,390.811z
			 M716.528,350.896c-6.168,0.932-12.33,1.855-18.487,2.784c-0.552-5.938-1.095-11.867-1.644-17.808
			c6.147-1.066,12.291-2.148,18.444-3.227C715.406,338.732,715.962,344.814,716.528,350.896z M711.159,292.738
			c0.562,6.085,1.127,12.174,1.684,18.252c-6.132,1.244-12.258,2.487-18.396,3.735c-0.543-5.937-1.1-11.87-1.646-17.802
			C698.918,295.533,705.038,294.136,711.159,292.738z M685.913,394.188c-6.191,0.611-12.391,1.219-18.584,1.833
			c-0.516-5.682-1.048-11.342-1.566-17.009c6.175-0.757,12.361-1.51,18.541-2.261C684.836,382.562,685.372,388.373,685.913,394.188z
			 M682.387,356.039c-6.152,0.927-12.32,1.854-18.479,2.784c-0.53-5.672-1.051-11.339-1.574-17.009
			c6.15-1.072,12.302-2.141,18.443-3.219C681.324,344.41,681.858,350.22,682.387,356.039z M677.262,300.446
			c0.535,5.815,1.072,11.63,1.615,17.446c-6.137,1.244-12.273,2.49-18.409,3.736c-0.519-5.674-1.045-11.336-1.568-17.006
			C665.023,303.229,671.138,301.844,677.262,300.446z M651.614,397.563c-6.19,0.615-12.381,1.228-18.572,1.835
			c-0.501-5.403-1-10.801-1.496-16.206c6.172-0.749,12.359-1.506,18.531-2.258C650.588,386.476,651.096,392.022,651.614,397.563z
			 M148.209,392.64c-6.183-0.614-12.382-1.227-18.569-1.829c0.566-6.085,1.125-12.169,1.688-18.248
			c6.171,0.755,12.351,1.51,18.53,2.267C149.31,380.765,148.769,386.703,148.209,392.64z M151.809,353.681
			c-6.163-0.929-12.326-1.853-18.488-2.784c0.561-6.082,1.126-12.164,1.687-18.25c6.148,1.078,12.293,2.16,18.442,3.227
			C152.9,341.813,152.36,347.742,151.809,353.681z M155.405,314.726c-6.141-1.248-12.27-2.491-18.401-3.735
			c0.566-6.078,1.121-12.167,1.686-18.252c6.119,1.397,12.239,2.795,18.356,4.186C156.498,302.855,155.946,308.789,155.405,314.726z
			 M182.518,396.021c-6.193-0.614-12.39-1.222-18.578-1.833c0.535-5.814,1.073-11.625,1.605-17.437
			c6.183,0.751,12.361,1.504,18.539,2.261C183.562,384.679,183.039,390.339,182.518,396.021z M185.944,358.823
			c-6.16-0.931-12.331-1.857-18.488-2.784c0.535-5.819,1.075-11.629,1.61-17.443c6.149,1.078,12.297,2.146,18.455,3.219
			C186.992,347.484,186.47,353.151,185.944,358.823z M189.381,321.629c-6.141-1.246-12.275-2.492-18.41-3.736
			c0.541-5.816,1.076-11.631,1.611-17.446c6.126,1.397,12.244,2.782,18.362,4.177C190.422,310.293,189.896,315.955,189.381,321.629z
			 M216.807,399.398c-6.19-0.607-12.375-1.22-18.575-1.835c0.515-5.541,1.025-11.088,1.538-16.629
			c6.173,0.752,12.358,1.509,18.533,2.258C217.805,388.598,217.312,393.995,216.807,399.398z M220.079,363.964
			c-6.163-0.931-12.322-1.855-18.49-2.786c0.515-5.548,1.033-11.089,1.537-16.635c6.146,1.073,12.303,2.148,18.446,3.219
			C221.073,353.161,220.578,358.56,220.079,363.964z M223.345,328.525c-6.135-1.246-12.261-2.488-18.398-3.74
			c0.51-5.546,1.028-11.089,1.538-16.633c6.115,1.391,12.242,2.78,18.353,4.168C224.346,317.725,223.844,323.119,223.345,328.525z
			 M251.108,402.788c-6.191-0.618-12.381-1.228-18.574-1.84c0.489-5.28,0.971-10.554,1.459-15.826
			c6.185,0.742,12.356,1.503,18.536,2.258C252.06,392.516,251.584,397.648,251.108,402.788z M254.214,369.101
			c-6.163-0.928-12.322-1.856-18.488-2.784c0.49-5.271,0.978-10.553,1.462-15.833c6.146,1.073,12.294,2.146,18.449,3.222
			C255.165,358.836,254.688,363.971,254.214,369.101z M257.321,335.426c-6.132-1.245-12.267-2.494-18.398-3.737
			c0.488-5.278,0.972-10.556,1.457-15.827c6.124,1.387,12.242,2.775,18.365,4.161C258.268,325.156,257.797,330.287,257.321,335.426z
			 M285.406,406.158c-6.188-0.612-12.379-1.221-18.575-1.828c0.462-5.013,0.927-10.025,1.386-15.029
			c6.183,0.756,12.356,1.515,18.536,2.263C286.305,396.423,285.856,401.292,285.406,406.158z M288.352,374.246
			c-6.163-0.937-12.327-1.866-18.487-2.791c0.462-5.01,0.921-10.019,1.386-15.025c6.148,1.073,12.294,2.154,18.446,3.22
			C289.247,364.513,288.8,369.372,288.352,374.246z M291.296,342.327c-6.135-1.249-12.267-2.493-18.401-3.739
			c0.465-5.01,0.919-10.02,1.384-15.031c6.12,1.396,12.244,2.784,18.364,4.17C292.193,332.589,291.745,337.462,291.296,342.327z
			 M319.706,409.535c-6.19-0.608-12.383-1.221-18.575-1.833c0.438-4.732,0.871-9.476,1.306-14.214
			c6.188,0.752,12.358,1.512,18.541,2.267C320.555,400.349,320.132,404.939,319.706,409.535z M322.487,379.382
			c-6.166-0.925-12.322-1.855-18.49-2.781c0.44-4.747,0.88-9.487,1.319-14.229c6.146,1.073,12.295,2.148,18.442,3.222
			C323.333,370.193,322.911,374.788,322.487,379.382z M325.272,349.221c-6.136-1.246-12.261-2.489-18.401-3.732
			c0.437-4.741,0.874-9.487,1.311-14.223c6.118,1.387,12.241,2.783,18.359,4.173C326.118,340.034,325.692,344.627,325.272,349.221z
			 M368.92,490.348c7.922,0,15.841,0,23.76,0l-2.415,37.27c-8.649,0-17.297,0-25.946,0
			C365.853,515.191,367.391,502.775,368.92,490.348z M380.598,676.676c-11.576,0-23.156,0-34.736,0
			c1.546-12.417,3.079-24.841,4.612-37.269c10.851,0,21.692,0,32.542,0L380.598,676.676z M355.096,602.146
			c1.526-12.419,3.064-24.849,4.608-37.268c9.382,0,18.763,0,28.144,0l-2.417,37.268
			C375.321,602.146,365.206,602.146,355.096,602.146z M422.023,676.676c-11.866,0-23.735,0-35.604,0l2.417-37.269
			c11.062,0,22.127,0,33.187,0V676.676z M422.023,602.146c-10.256,0-20.515,0-30.772,0l2.418-37.268c9.454,0,18.905,0,28.354,0
			V602.146z M422.023,527.616c-8.646,0-17.29,0-25.938,0l2.414-37.27c7.841,0,15.681,0,23.522,0L422.023,527.616L422.023,527.616z
			 M427.833,676.676v-37.269c11.059,0,22.117,0,33.177,0l2.421,37.269C451.561,676.676,439.696,676.676,427.833,676.676z
			 M456.174,564.88l2.42,37.269c-10.254,0-20.51,0-30.762,0V564.88C437.282,564.88,446.729,564.88,456.174,564.88z M427.833,527.616
			v-37.27c7.834,0,15.67,0,23.508,0l2.42,37.27C445.116,527.616,436.474,527.616,427.833,527.616z M503.989,676.676
			c-11.578,0-23.16,0-34.741,0l-2.415-37.269c10.847,0,21.693,0,32.542,0C500.907,651.835,502.444,664.259,503.989,676.676z
			 M490.148,564.88c1.536,12.419,3.074,24.849,4.607,37.269c-10.113,0-20.229,0-30.34,0l-2.418-37.269
			C471.379,564.88,480.764,564.88,490.148,564.88z M480.923,490.348c1.54,12.429,3.075,24.845,4.613,37.27
			c-8.653,0-17.306,0-25.958,0l-2.418-37.27C465.083,490.348,473.004,490.348,480.923,490.348z M465.405,460.706h-80.93
			l-40.452-70.078l40.455-70.077h80.923l40.455,70.077L465.405,460.706z M523.305,335.438c6.123-1.39,12.238-2.786,18.362-4.173
			c0.438,4.735,0.876,9.481,1.312,14.223c-6.141,1.243-12.268,2.486-18.398,3.732C524.157,344.627,523.731,340.034,523.305,335.438z
			 M526.086,365.594c6.152-1.073,12.295-2.148,18.452-3.222c0.431,4.741,0.871,9.481,1.312,14.229
			c-6.166,0.926-12.325,1.856-18.488,2.781C526.932,374.788,526.509,370.193,526.086,365.594z M530.137,409.535
			c-0.423-4.596-0.849-9.187-1.266-13.78c6.179-0.755,12.354-1.515,18.535-2.267c0.438,4.738,0.871,9.481,1.311,14.214
			C542.524,408.314,536.331,408.927,530.137,409.535z M557.2,327.727c6.127-1.386,12.25-2.773,18.371-4.17
			c0.461,5.012,0.918,10.021,1.377,15.031c-6.125,1.246-12.261,2.49-18.396,3.739C558.102,337.462,557.654,332.589,557.2,327.727z
			 M560.146,359.649c6.15-1.065,12.303-2.146,18.451-3.22c0.463,5.007,0.921,10.016,1.388,15.025
			c-6.163,0.925-12.326,1.854-18.484,2.791C561.055,369.372,560.6,364.513,560.146,359.649z M564.438,406.158
			c-0.447-4.866-0.897-9.735-1.344-14.595c6.176-0.748,12.357-1.507,18.537-2.263c0.457,5.004,0.925,10.017,1.387,15.029
			C576.825,404.938,570.631,405.546,564.438,406.158z M591.11,320.022c6.116-1.386,12.233-2.774,18.354-4.161
			c0.487,5.271,0.979,10.549,1.466,15.827c-6.139,1.243-12.274,2.492-18.403,3.737C592.052,330.287,591.577,325.156,591.11,320.022z
			 M594.209,353.705c6.15-1.075,12.302-2.148,18.443-3.222c0.494,5.28,0.977,10.562,1.465,15.833
			c-6.163,0.928-12.323,1.856-18.485,2.784C595.159,363.971,594.682,358.836,594.209,353.705z M598.747,402.788
			c-0.484-5.14-0.958-10.272-1.431-15.408c6.179-0.755,12.355-1.516,18.546-2.258c0.479,5.272,0.964,10.546,1.454,15.826
			C611.124,401.561,604.929,402.17,598.747,402.788z M625.013,312.32c6.106-1.388,12.239-2.777,18.347-4.168
			c0.519,5.544,1.029,11.087,1.538,16.633c-6.136,1.252-12.265,2.494-18.396,3.74C626.002,323.119,625.506,317.725,625.013,312.32z
			 M628.278,347.762c6.143-1.07,12.296-2.146,18.444-3.219c0.511,5.546,1.025,11.087,1.537,16.635
			c-6.17,0.931-12.336,1.855-18.492,2.786C629.269,358.56,628.774,353.161,628.278,347.762z"/>
		<polygon fill="#FBBA00" points="394.178,337.189 363.433,390.438 394.178,443.692 455.67,443.692 486.414,390.438 455.67,337.189 
					"/>
	</g>
</g>
</svg>
