<?xml version="1.0" encoding="utf-8"?>
<!-- Generator: Adobe Illustrator 16.0.0, SVG Export Plug-In . SVG Version: 6.00 Build 0)  -->
<!DOCTYPE svg PUBLIC "-//W3C//DTD SVG 1.1//EN" "http://www.w3.org/Graphics/SVG/1.1/DTD/svg11.dtd">
<svg version="1.1" id="Capa_1" xmlns="http://www.w3.org/2000/svg" xmlns:xlink="http://www.w3.org/1999/xlink" x="0px" y="0px"
	 width="300px" height="300px" viewBox="0 0 300 300" enable-background="new 0 0 300 300" xml:space="preserve">
<g>
	<g>
		<path fill="#FFFFFF" d="M215.273,72.011c9.229-10.319,14.812-25.216,16.146-43.08c0.83-11.101-0.198-20.403-0.666-23.458
			c-0.098-1.483-0.752-2.928-1.947-3.989c-2.411-2.139-6.081-1.948-8.236,0.452c-0.104,0.113-10.789,11.395-40.622,21.349
			C166.234,27.86,155.982,38.343,150,53.796c-5.982-15.453-16.235-25.935-29.949-30.511C90.217,13.331,79.532,2.05,79.458,1.971
			c-2.155-2.399-5.835-2.603-8.245-0.462c-1.122,0.996-1.77,2.326-1.929,3.708c-0.444,2.755-1.56,12.28-0.706,23.715
			c1.335,17.865,6.919,32.762,16.148,43.081c17.246,19.271,46.737,22.815,59.4,23.425l-0.001,7.184
			c-1.909-1.599-4.022-3.085-6.33-4.417c-15.121-8.729-31.853-7.097-38.095,3.714c-6.242,10.812,0.71,26.12,15.83,34.849
			c6.53,3.77,13.36,5.607,19.517,5.607c3.265,0,6.334-0.525,9.075-1.545v3.324H112.48c-3.235,0-5.859,2.624-5.859,5.859v21.092
			c0,3.235,2.624,5.858,5.859,5.858h4.921v13.207L69.703,291.648c-0.853,1.815-0.719,3.939,0.355,5.633
			C71.134,298.975,73,300,75.005,300h149.987c2.006,0,3.871-1.025,4.946-2.719c1.074-1.693,1.208-3.818,0.355-5.633L182.596,190.17
			v-13.207h4.875c3.235,0,5.859-2.623,5.859-5.858v-21.093c0-3.236-2.625-5.859-5.859-5.859h-31.632v-3.335
			c2.749,1.027,5.829,1.557,9.108,1.557c6.155,0,12.987-1.838,19.517-5.607c6.815-3.935,12.272-9.443,15.365-15.51
			c3.467-6.799,3.636-13.847,0.466-19.338c-6.242-10.812-22.976-12.444-38.096-3.714c-2.286,1.32-4.414,2.82-6.357,4.456
			l0.001-7.221C168.502,94.831,198.018,91.294,215.273,72.011z M183.657,34.4c17.606-5.874,29.229-12.285,36.333-17.092
			c0.381,12.382-1.127,33.111-13.45,46.89c-14.012,15.658-39.292,18.855-50.615,19.486C156.479,70.972,160.351,42.176,183.657,34.4z
			 M93.461,64.199C81.137,50.42,79.629,29.691,80.01,17.308c7.104,4.807,18.726,11.217,36.333,17.092
			c23.307,7.776,27.179,36.574,27.732,49.286C132.764,83.054,107.475,79.86,93.461,64.199z M143.479,127.193
			c-2.494,4.319-12.179,5.146-22.088-0.574c-9.91-5.721-14.035-14.522-11.541-18.842c2.494-4.32,12.177-5.147,22.088,0.574
			c7.454,4.303,11.634,10.349,12.187,14.92v0.421c-0.016,0.477-0.019,0.95,0,1.419v0.104
			C144.027,125.944,143.816,126.61,143.479,127.193z M144.123,155.871l0,9.375h-20.862h-4.921v-9.375H144.123z M128.562,193.971
			c0.367-0.78,0.557-1.631,0.557-2.492v-14.516h15.001l-0.004,49.801h-30.968L128.562,193.971z M215.766,288.281H84.233l23.408-49.8
			h34.516l-19.626,19.626c-2.288,2.288-2.288,5.998,0,8.286c1.145,1.145,2.644,1.716,4.143,1.716c1.5,0,2.999-0.571,4.143-1.716
			l13.297-13.298l-0.002,19.172c0,3.235,2.624,5.858,5.858,5.859c0,0,0,0,0,0c3.236,0,5.859-2.624,5.859-5.859l0.002-19.188
			l13.312,13.313c1.145,1.145,2.645,1.716,4.143,1.716c1.5,0,2.999-0.571,4.143-1.716c2.289-2.288,2.289-5.997,0-8.286
			l-19.625-19.626h3.609c3.235,0,5.859-2.624,5.859-5.858c0-3.236-2.625-5.859-5.859-5.859h-5.581l0.004-49.801h15.042v14.516
			c0,0.861,0.19,1.713,0.557,2.492L215.766,288.281z M155.841,155.871h25.773v9.375h-4.874h-20.9L155.841,155.871z M157.275,119.036
			c2.047-4.014,5.979-7.909,10.785-10.685c4.894-2.825,9.73-4.053,13.675-4.053c4.044,0,7.151,1.292,8.413,3.479
			c1.148,1.989,0.873,4.962-0.756,8.158c-2.047,4.014-5.978,7.909-10.785,10.684c-9.91,5.722-19.594,4.895-22.088,0.574
			c-0.328-0.567-0.536-1.218-0.633-1.929c0.031-0.633,0.028-1.272-0.004-1.914C156.039,122.016,156.503,120.551,157.275,119.036z"/>
	</g>
</g>
<g>
	<g>
		<path fill="#FFFFFF" d="M178.729,226.764h-0.069c-3.235,0-5.858,2.624-5.858,5.859s2.623,5.859,5.858,5.859h0.069
			c3.236,0,5.859-2.624,5.859-5.859S181.965,226.764,178.729,226.764z"/>
	</g>
</g>
</svg>
