<?xml version="1.0" encoding="utf-8"?>
<!-- Generator: Adobe Illustrator 16.0.0, SVG Export Plug-In . SVG Version: 6.00 Build 0)  -->
<!DOCTYPE svg PUBLIC "-//W3C//DTD SVG 1.1//EN" "http://www.w3.org/Graphics/SVG/1.1/DTD/svg11.dtd">
<svg version="1.1" id="Capa_1" xmlns="http://www.w3.org/2000/svg" xmlns:xlink="http://www.w3.org/1999/xlink" x="0px" y="0px"
	 width="300px" height="300px" viewBox="0 0 300 300" enable-background="new 0 0 300 300" xml:space="preserve">
<g>
	<g>
		<path fill="#FFFFFF" d="M299.975,168.838c-3.071-38.007-29.348-69.177-64.354-79.788c-8.58-19.786-22.24-37.026-39.639-49.947
			c-18.309-13.597-39.985-21.812-62.685-23.754c-2.409-0.204-4.546,1.585-4.753,4.003c-0.208,2.418,1.585,4.546,4.003,4.753
			c39.802,3.406,74.396,27.033,92.187,62.364c-41.572-7.183-81.794,14.854-98.705,52.324c-21.862,0-43.027-0.797-64.297-2.762
			c2.165-13.062,5.385-19.688,5.456-19.832c1.088-2.162,0.224-4.799-1.938-5.896c-2.162-1.098-4.808-0.233-5.907,1.931
			c-0.169,0.334-3.958,7.933-6.375,22.925c-5.834-0.628-11.687-1.359-17.57-2.179c1.311-9.3,8.331-45.869,39.711-70.792
			c1.901-1.509,2.218-4.273,0.708-6.175c-1.509-1.901-4.274-2.218-6.175-0.708c-20.45,16.242-31.121,36.86-36.471,51.297
			c-4.205,11.346-5.869,20.649-6.481,25.094c-5.767-0.896-11.568-1.878-17.427-2.979c-0.291-0.055-0.499-0.333-0.473-0.633
			c4.755-55.498,48.491-99.227,103.995-103.978c2.418-0.207,4.211-2.335,4.004-4.753c-0.208-2.418-2.332-4.208-4.753-4.003
			c-28.775,2.463-55.908,15.103-76.4,35.592C15.144,71.431,2.501,98.562,0.035,127.336c-0.413,4.821,2.857,9.129,7.608,10.021
			c29.678,5.573,61.004,8.893,93.383,9.915l-13.989,88.93c-7.535,24.116,10.61,48.465,35.631,48.465
			c20.583,0,37.329-16.745,37.329-37.329c0-3.785-0.571-7.529-1.697-11.136l-8.707-55.351c13.76,1.737,27.908,2.857,42.346,3.353
			l-10.003,63.59c-0.843,2.725-1.269,5.552-1.269,8.409c0,15.695,12.769,28.465,28.465,28.465c19.055,0,32.869-18.506,27.197-36.873
			l-1.266-8.047c-0.379-2.396-2.619-4.037-5.025-3.658c-2.398,0.378-4.035,2.627-3.658,5.025c1.363,8.663,1.305,8.506,1.477,9.037
			c4.121,12.766-5.473,25.725-18.725,25.725c-13.249,0-22.843-12.959-18.724-25.724c0.07-0.218,0.124-0.441,0.159-0.667
			l10.227-65.01c0,0,16.677,0,16.678,0l5.683,36.13c0.378,2.397,2.624,4.038,5.024,3.657c2.396-0.377,4.035-2.625,3.658-5.023
			l-5.512-35.035c39.018-1.336,67.515-7.301,67.515-7.301C297.65,176.184,300.288,172.717,299.975,168.838z M149.667,237.897
			c0.036,0.226,0.088,0.449,0.159,0.667c0.916,2.836,1.38,5.789,1.38,8.774c0,15.737-12.803,28.54-28.539,28.54
			s-28.539-12.803-28.539-28.54c0-5.257,1.4-8.556,1.539-9.44l14.207-90.315c6.912,0,12.681,0.032,12.712,0.032
			c-3.207,9.697-4.309,19.542-4.292,21.549c0.031,3.812,2.734,7.104,6.551,7.818c4.914,0.924,10.844,1.91,15.652,2.622
			L149.667,237.897z M278.059,170.664c-1.135-13.023-6.277-22.38-6.514-22.802c-1.183-2.119-3.859-2.877-5.98-1.694
			c-2.118,1.183-2.877,3.86-1.694,5.98c0.048,0.087,4.589,8.34,5.474,19.744c-47.006,6.118-97.963,4.805-142.201-3.421
			c4.29-45.609,46.626-80.582,93.906-73.674c36.877,5.455,66.502,35.788,70.07,73.674
			C286.814,169.271,282.455,169.998,278.059,170.664z"/>
	</g>
</g>
</svg>
